<svg xmlns="http://www.w3.org/2000/svg" width="512" height="512" viewBox="0 0 512 512">
  <!-- Background Stacked Archives (to show 'more' files) -->
  <rect x="96" y="32" width="352" height="384" rx="64" fill="#2563eb" fill-opacity="0.4" />
  <rect x="80" y="48" width="368" height="384" rx="64" fill="#2563eb" fill-opacity="0.6" />
  
  <!-- Primary Archive Box -->
  <rect x="64" y="64" width="384" height="384" rx="64" fill="#3b82f6" />
  
  <!-- Zipper Track (Visual shorthand for 'zipped') -->
  <g fill="white" fill-opacity="0.15">
    <rect x="84" y="120" width="24" height="12" rx="2" />
    <rect x="84" y="144" width="24" height="12" rx="2" />
    <rect x="84" y="168" width="24" height="12" rx="2" />
    <rect x="84" y="192" width="24" height="12" rx="2" />
    <rect x="84" y="216" width="24" height="12" rx="2" />
    <rect x="84" y="240" width="24" height="12" rx="2" />
    <rect x="84" y="264" width="24" height="12" rx="2" />
    <rect x="84" y="288" width="24" height="12" rx="2" />
    <rect x="84" y="312" width="24" height="12" rx="2" />
    <rect x="84" y="336" width="24" height="12" rx="2" />
  </g>
  
  <!-- Negative Space 'I' (Center Cutout) -->
  <path d="M192 160 H320 V192 H272 V320 H320 V352 H192 V320 H240 V192 H192 V160 Z" fill="white" />
  
  <!-- Drawer Handle / Layer Indicator -->
  <rect x="224" y="376" width="64" height="12" rx="6" fill="white" fill-opacity="0.3" />
</svg>
