<svg xmlns="http://www.w3.org/2000/svg" width="512" height="512" viewBox="0 0 512 512">
  <defs>
    <linearGradient id="folderGrad" x1="0%" y1="0%" x2="100%" y2="100%">
      <stop offset="0%" style="stop-color:#3b82f6;stop-opacity:1" />
      <stop offset="100%" style="stop-color:#2563eb;stop-opacity:1" />
    </linearGradient>
  </defs>
  
  <!-- Folder Shadow -->
  <path d="M64 128 C 64 100, 80 96, 100 96 H 200 L 240 128 H 412 C 440 128, 448 144, 448 164 V 400 C 448 428, 432 432, 412 432 H 100 C 72 432, 64 416, 64 400 Z" fill="rgba(0,0,0,0.1)" transform="translate(4,4)" />
  
  <!-- Folder Back -->
  <path d="M64 128 C 64 100, 80 96, 100 96 H 200 L 240 128 H 412 C 440 128, 448 144, 448 164 V 400 C 448 428, 432 432, 412 432 H 100 C 72 432, 64 416, 64 400 Z" fill="url(#folderGrad)" />
  
  <!-- Archive Box (Stylized zipper/layer indicator) -->
  <rect x="160" y="180" width="192" height="160" rx="8" fill="#ffffff" fill-opacity="0.2" stroke="#ffffff" stroke-width="2" stroke-dasharray="6,4" />
  <rect x="196" y="210" width="120" height="12" rx="4" fill="#ffffff" />
  <rect x="196" y="245" width="120" height="12" rx="4" fill="#ffffff" />
  <rect x="196" y="280" width="120" height="12" rx="4" fill="#ffffff" />
  
  <!-- Folder Front (Translucent Glass Effect) -->
  <path d="M64 200 C 64 172, 80 168, 100 168 H 412 C 440 168, 448 184, 448 204 V 400 C 448 428, 432 432, 412 432 H 100 C 72 432, 64 416, 64 400 Z" fill="#ffffff" fill-opacity="0.3" />
  <path d="M64 200 C 64 172, 80 168, 100 168 H 412 C 440 168, 448 184, 448 204 V 400 C 448 428, 432 432, 412 432 H 100 C 72 432, 64 416, 64 400 Z" fill="none" stroke="#ffffff" stroke-width="2" stroke-opacity="0.5" />
</svg>
